<?xml version="1.0" encoding="utf-8"?>
<!-- Generator: Adobe Illustrator 16.0.0, SVG Export Plug-In . SVG Version: 6.00 Build 0)  -->
<!DOCTYPE svg PUBLIC "-//W3C//DTD SVG 1.1//EN" "http://www.w3.org/Graphics/SVG/1.1/DTD/svg11.dtd">
<svg version="1.1" id="Layer_1" xmlns="http://www.w3.org/2000/svg" xmlns:xlink="http://www.w3.org/1999/xlink" x="0px" y="0px"
	 width="156px" height="32px" viewBox="0 0 156 32" enable-background="new 0 0 156 32" xml:space="preserve">
<g>
	<path d="M44.725,26.209h-2.736L36.174,9.4v16.809h-2.463V6.164h3.598l6.075,17.454l5.938-17.454h3.612v20.045h-2.463V9.4
		L44.725,26.209z"/>
	<path d="M68.244,20.181H60.35l-2.148,6.028h-2.777l7.292-20.045h3.366l7.169,20.045h-2.914L68.244,20.181z M67.506,18.032
		l-3.147-9.116l-3.353,9.116H67.506z"/>
	<path d="M78.779,17.711v8.498H76.18V6.164h8.442c1.787,0,3.215,0.412,4.282,1.235c1.341,1.03,2.012,2.574,2.012,4.633
		c0,1.772-0.588,3.187-1.766,4.242c-1.067,0.958-2.39,1.437-3.968,1.437H78.779z M78.779,15.455h5.445
		c1.313,0,2.308-0.331,2.982-0.994c0.657-0.653,0.985-1.495,0.985-2.524s-0.328-1.866-0.985-2.51
		c-0.675-0.672-1.669-1.007-2.982-1.007h-5.445V15.455z"/>
	<path d="M97.169,6.164v17.789h10.097v2.256H94.568V6.164H97.169z"/>
	<path d="M122.289,19.778h-10.822c0.018,1.298,0.278,2.322,0.779,3.074c0.829,1.244,2.007,1.866,3.53,1.866
		c1.906,0,3.192-0.962,3.858-2.887h2.353c-0.219,1.155-0.679,2.149-1.381,2.981c-1.15,1.351-2.783,2.026-4.899,2.026
		c-2.078,0-3.721-0.697-4.925-2.094c-1.168-1.343-1.751-3.187-1.751-5.532c0-2.471,0.643-4.404,1.929-5.8
		c1.241-1.351,2.841-2.027,4.803-2.027c1.596,0,2.978,0.457,4.146,1.369c1.313,1.039,2.074,2.636,2.284,4.794
		C122.257,18.149,122.289,18.893,122.289,19.778z M119.771,17.912c0.009-0.055,0.014-0.108,0.014-0.161
		c0-0.932-0.265-1.781-0.794-2.551c-0.775-1.128-1.865-1.691-3.271-1.691c-1.531,0-2.686,0.653-3.461,1.96
		c-0.42,0.689-0.661,1.503-0.725,2.444H119.771z"/>
</g>
</svg>
